<svg width="25" height="26" viewBox="0 0 25 26" fill="none" xmlns="http://www.w3.org/2000/svg">
<g clip-path="url(#clip0)">
<path d="M24.9868 13.2339C24.9868 12.2097 24.9018 11.4622 24.7177 10.6871H12.749V15.31H19.7744C19.6328 16.4589 18.8679 18.189 17.1682 19.3516L17.1444 19.5064L20.9287 22.3712L21.1908 22.3968C23.5987 20.2237 24.9868 17.0264 24.9868 13.2339Z" fill="#4285F4"/>
<path d="M12.749 25.4141C16.1908 25.4141 19.0803 24.3068 21.1908 22.3968L17.1682 19.3516C16.0917 20.0852 14.647 20.5973 12.749 20.5973C9.37797 20.5973 6.51684 18.4243 5.49692 15.4208L5.34743 15.4332L1.41248 18.4091L1.36102 18.5489C3.45729 22.6181 7.76319 25.4141 12.749 25.4141Z" fill="#34A853"/>
<path d="M5.49691 15.4208C5.22779 14.6457 5.07205 13.8152 5.07205 12.9571C5.07205 12.0989 5.22779 11.2684 5.48275 10.4933L5.47562 10.3283L1.49136 7.3046L1.361 7.36519C0.497031 9.05383 0.00128174 10.9501 0.00128174 12.9571C0.00128174 14.964 0.497031 16.8602 1.361 18.5489L5.49691 15.4208Z" fill="#FBBC05"/>
<path d="M12.749 5.3167C15.1427 5.3167 16.7574 6.3271 17.6781 7.17147L21.2758 3.73884C19.0662 1.73187 16.1908 0.5 12.749 0.5C7.7632 0.5 3.45729 3.2959 1.36102 7.36517L5.48277 10.4933C6.51684 7.48979 9.37797 5.3167 12.749 5.3167Z" fill="#EB4335"/>
</g>
<defs>
<clipPath id="clip0">
<rect width="25" height="25" fill="white" transform="translate(0 0.5)"/>
</clipPath>
</defs>
</svg>
