<svg xmlns="http://www.w3.org/2000/svg" viewBox="0 0 32 32">
    <path d="M30.922 11.727l-14-10.91a1.498 1.498 0 00-1.844 0l-14 10.91A1.5 1.5 0 002 14.41h2.5V30A1.5 1.5 0 006 31.5h6.11a1.5 1.5 0 001.5-1.5v-4.65A2.393 2.393 0 0116 22.96c.638 0 1.237.249 1.697.708a2.34 2.34 0 01.693 1.682V30a1.5 1.5 0 001.5 1.5H26a1.5 1.5 0 001.5-1.5V14.41H30a1.501 1.501 0 00.922-2.683zM24.5 12.91V28.5h-3.11v-3.15c0-1.454-.564-2.81-1.58-3.81A5.355 5.355 0 0016 19.96a5.396 5.396 0 00-5.39 5.39v3.15H7.5V12.91a1.5 1.5 0 00-1.178-1.465L16 3.902l9.678 7.543A1.5 1.5 0 0024.5 12.91z" />
</svg>